<svg width="24" height="24" viewBox="0 0 24 24" fill="none" xmlns="http://www.w3.org/2000/svg">
<path d="M11.4995 21.2609C11.1062 21.2609 10.7307 21.1362 10.4133 20.9001C8.2588 19.3012 3.10938 15.3239 1.81755 12.9143C0.127895 9.76543 1.14258 5.72131 4.07489 3.89968C5.02253 3.31177 6.09533 3 7.18601 3C8.81755 3 10.3508 3.66808 11.4995 4.85726C12.6483 3.66808 14.1815 3 15.8131 3C16.9038 3 17.9766 3.31177 18.9242 3.89968C21.8565 5.72131 22.8712 9.76543 21.186 12.9143C19.8942 15.3239 14.7448 19.3012 12.5902 20.9001C12.2684 21.1362 11.8929 21.2609 11.4995 21.2609Z" fill="#ed4956" stroke="#ed4956" stroke-width="0.6"/>
</svg>
